<svg width="442" height="500" version="1.1" viewBox="0 0 442 500" xmlns="http://www.w3.org/2000/svg">
  <g fill="#bb5134">
    <path transform="rotate(180 233.39 309.77)" d="m25 2.4e2c0 1.1e2 1.9e2 2.6e2 2.5e2 2.6e2 9 0 11-5.5 11-12 0-29-1.8e2 -1.4e2 -1.8e2 -2.5e2 0-36 38-55 97-55 59 0 1.4e2 20 1.6e2 41s-2.7 66 10 74c4.7 2.6 13 5.2 20 5.2 17 0 46-71 46-1e2 0-50-1.8e2 -81-2.5e2 -81-72 0-1.7e2 16-1.7e2 1.2e2z"/>
    <path d="m0 1.2e2c0 1.1e2 1.9e2 2.6e2 2.5e2 2.6e2 9 0 11-5.5 11-12 0-29-1.8e2 -1.4e2 -1.8e2 -2.5e2 0-36 38-55 97-55 59 0 1.4e2 20 1.6e2 41 11 21-2.7 66 10 74 4.7 2.6 13 5.2 20 5.2 17 0 46-71 46-1e2 0-50-1.8e2 -81-2.5e2 -81-72 0-1.7e2 16-1.7e2 1.2e2z"/>
  </g>
</svg>
